<svg width="20" height="21" viewBox="0 0 20 21" fill="none" xmlns="http://www.w3.org/2000/svg">
<path fill-rule="evenodd" clip-rule="evenodd" d="M0.833313 10.1387C0.833313 5.07604 4.93737 0.971985 9.99998 0.971985C15.0626 0.971985 19.1666 5.07604 19.1666 10.1387C19.1666 15.2013 15.0626 19.3053 9.99998 19.3053C4.93737 19.3053 0.833313 15.2013 0.833313 10.1387ZM9.99998 2.63865C5.85784 2.63865 2.49998 5.99652 2.49998 10.1387C2.49998 14.2808 5.85784 17.6386 9.99998 17.6386C14.1421 17.6386 17.5 14.2808 17.5 10.1387C17.5 5.99652 14.1421 2.63865 9.99998 2.63865Z" fill="#C7C9D9"/>
<path fill-rule="evenodd" clip-rule="evenodd" d="M9.99998 5.97198C10.4602 5.97198 10.8333 6.34508 10.8333 6.80532V10.1387C10.8333 10.5989 10.4602 10.972 9.99998 10.972C9.53974 10.972 9.16665 10.5989 9.16665 10.1387V6.80532C9.16665 6.34508 9.53974 5.97198 9.99998 5.97198Z" fill="#C7C9D9"/>
<path d="M10.8333 13.472C10.8333 13.9322 10.4602 14.3053 9.99998 14.3053C9.53974 14.3053 9.16665 13.9322 9.16665 13.472C9.16665 13.0117 9.53974 12.6387 9.99998 12.6387C10.4602 12.6387 10.8333 13.0117 10.8333 13.472Z" fill="#C7C9D9"/>
</svg>
