<svg width="78" height="41" viewBox="0 0 78 41" fill="none" xmlns="http://www.w3.org/2000/svg">
<path d="M18.3993 29.4074C18.4422 29.4074 18.4817 29.4302 18.5038 29.467L24.2528 39.1164C24.4029 39.3683 24.3202 39.6948 24.0682 39.8449C23.8163 39.9947 23.4907 39.9122 23.3407 39.6603L17.8202 30.3937C17.7975 30.3555 17.7976 30.308 17.8202 30.2697L18.2948 29.467C18.3168 29.4302 18.3564 29.4075 18.3993 29.4074ZM20.0301 26.6506C20.073 26.6506 20.1126 26.6733 20.1346 26.7101L27.5262 39.1164C27.6763 39.3683 27.5936 39.6948 27.3417 39.8449C27.0898 39.995 26.7643 39.9121 26.6141 39.6603L19.451 27.6369C19.4283 27.5986 19.4284 27.5512 19.451 27.5129L19.9247 26.7101C19.9466 26.6731 19.9871 26.6506 20.0301 26.6506ZM21.4559 24.2394C21.4988 24.2394 21.5384 24.2622 21.5604 24.299L30.3885 39.1164C30.5386 39.3683 30.4559 39.6948 30.204 39.8449C29.9521 39.9949 29.6265 39.9121 29.4764 39.6603L20.8768 25.2258C20.8542 25.1875 20.8542 25.14 20.8768 25.1017L21.3514 24.3C21.3734 24.2629 21.4129 24.2395 21.4559 24.2394ZM23.0858 21.4836C23.1288 21.4835 23.1693 21.5062 23.1913 21.5431L33.66 39.1164C33.8101 39.3683 33.7274 39.6948 33.4755 39.8449C33.2236 39.9948 32.898 39.9122 32.7479 39.6603L22.5067 22.4699C22.4841 22.4317 22.4841 22.3841 22.5067 22.3459L22.9813 21.5441C23.0032 21.5071 23.0428 21.4837 23.0858 21.4836ZM0.619991 0.483574C0.871793 0.333909 1.19748 0.416522 1.34753 0.668144L11.5682 17.8244C11.5911 17.8628 11.5911 17.9109 11.5682 17.9494L11.0926 18.7492C11.0707 18.786 11.0309 18.8086 10.9882 18.8088C10.9452 18.8088 10.9047 18.7861 10.8827 18.7492L0.435421 1.21209C0.285334 0.960157 0.368059 0.633661 0.619991 0.483574ZM3.89245 0.483574C4.14437 0.333523 4.47088 0.416243 4.62097 0.668144L13.204 15.0763C13.2268 15.1148 13.2268 15.1629 13.204 15.2013L12.7284 16.0002C12.7064 16.0371 12.6659 16.0597 12.6229 16.0597C12.5801 16.0596 12.5404 16.037 12.5184 16.0002L3.70788 1.21209C3.55783 0.960163 3.64053 0.633653 3.89245 0.483574ZM6.75476 0.483574C7.00667 0.333498 7.33317 0.416258 7.48327 0.668144L14.6346 12.673C14.6572 12.7113 14.6572 12.7588 14.6346 12.7971L14.1581 13.5969C14.1361 13.6337 14.0965 13.6564 14.0536 13.6564C14.0107 13.6564 13.9711 13.6337 13.9491 13.5969L6.57019 1.21209C6.42016 0.960174 6.50287 0.633652 6.75476 0.483574ZM10.0272 0.483574C10.279 0.333946 10.6047 0.416514 10.7548 0.668144L16.2694 9.92498C16.2923 9.9634 16.2923 10.0115 16.2694 10.05L15.7938 10.8498C15.7718 10.8867 15.7313 10.9093 15.6884 10.9094C15.6455 10.9092 15.6058 10.8866 15.5839 10.8498L9.84265 1.21209C9.69256 0.960157 9.77528 0.633661 10.0272 0.483574Z" fill="#3E7BFA"/>
<path d="M32.7583 0.552049C32.9077 0.299899 33.2326 0.216463 33.4849 0.365526C33.7373 0.514884 33.8208 0.8407 33.6714 1.09306L10.8091 39.7239C10.6598 39.976 10.3338 40.0595 10.0816 39.9104C9.82929 39.7611 9.74588 39.4352 9.89506 39.1829L32.7583 0.552049Z" fill="#3E7BFA"/>
<path d="M29.6047 0.551913C29.754 0.299581 30.0798 0.216039 30.3322 0.365389C30.5844 0.514804 30.668 0.840639 30.5187 1.09293L7.65544 39.7238C7.50601 39.9759 7.18014 40.0595 6.9279 39.9103C6.67563 39.761 6.59226 39.4351 6.74137 39.1828L29.6047 0.551913Z" fill="#3E7BFA"/>
<path d="M26.4506 0.552061C26.6 0.299696 26.9258 0.216179 27.1782 0.365538C27.4305 0.514898 27.5141 0.840714 27.3647 1.09308L4.50143 39.7239C4.35194 39.9759 4.02609 40.0587 3.77389 39.9095C3.52211 39.7601 3.43849 39.435 3.58737 39.1829L26.4506 0.552061Z" fill="#3E7BFA"/>
<path d="M23.297 0.552077C23.4464 0.299759 23.7722 0.216307 24.0246 0.365554C24.2769 0.514913 24.3604 0.840728 24.2111 1.09309L1.34878 39.723C1.19943 39.9753 0.873599 40.0588 0.62124 39.9095C0.368875 39.7601 0.28536 39.4343 0.434716 39.182L23.297 0.552077Z" fill="#3E7BFA"/>
<path d="M47.0108 7.78072C47.304 7.78072 47.5419 8.01787 47.5421 8.31099V39.4526C47.5419 39.7457 47.304 39.9829 47.0108 39.9829C46.7179 39.9827 46.4808 39.7456 46.4806 39.4526V8.84224H39.5216C39.2283 8.84224 38.9903 8.60424 38.9903 8.31099C38.9905 8.01787 39.2284 7.78072 39.5216 7.78072H47.0108Z" fill="#3E7BFA"/>
<path d="M49.3773 5.41481C49.6703 5.41499 49.9075 5.65301 49.9076 5.94606V39.4519C49.9076 39.7451 49.6704 39.983 49.3773 39.9832C49.0841 39.9832 48.8461 39.7452 48.8461 39.4519V6.47731H40.9115C40.6184 6.47716 40.3812 6.23922 40.3812 5.94606C40.3813 5.65299 40.6184 5.41496 40.9115 5.41481H49.3773Z" fill="#3E7BFA"/>
<path d="M51.7418 3.04994C52.035 3.04995 52.273 3.28797 52.2731 3.58119V39.4523C52.2731 39.7455 52.0351 39.9835 51.7418 39.9835C51.4486 39.9835 51.2106 39.7455 51.2106 39.4523V4.11244H42.3014C42.0081 4.11244 41.7701 3.87444 41.7701 3.58119C41.7702 3.28796 42.0081 3.04994 42.3014 3.04994H51.7418Z" fill="#3E7BFA"/>
<path d="M54.1073 0.687454C54.4005 0.687552 54.6385 0.925514 54.6385 1.2187V39.455C54.6384 39.7481 54.4004 39.9852 54.1073 39.9853C53.8141 39.9853 53.5762 39.7481 53.576 39.455V1.74898H43.6903C43.3973 1.74877 43.1602 1.51166 43.16 1.2187C43.16 0.925581 43.3972 0.687661 43.6903 0.687454H54.1073Z" fill="#3E7BFA"/>
<path d="M69.0865 7.78072C69.3797 7.78074 69.6176 8.01789 69.6178 8.31099V39.4526C69.6176 39.7457 69.3797 39.9828 69.0865 39.9829C68.7934 39.9829 68.5555 39.7457 68.5553 39.4526V8.84224H61.5973C61.304 8.84224 61.066 8.60424 61.066 8.31099C61.0662 8.01787 61.3041 7.78072 61.5973 7.78072H69.0865Z" fill="#3E7BFA"/>
<path d="M71.4515 5.41481C71.7447 5.41481 71.9827 5.6529 71.9828 5.94606V39.4519C71.9828 39.7452 71.7448 39.9832 71.4515 39.9832C71.1583 39.9832 70.9203 39.7452 70.9203 39.4519V6.47731H62.9867C62.6934 6.47731 62.4554 6.23931 62.4554 5.94606C62.4555 5.6529 62.6935 5.41481 62.9867 5.41481H71.4515Z" fill="#3E7BFA"/>
<path d="M73.8168 3.04994C74.1098 3.0502 74.347 3.28812 74.347 3.58119V39.4523C74.347 39.7454 74.1098 39.9833 73.8168 39.9835C73.5235 39.9835 73.2855 39.7455 73.2855 39.4523V4.11244H64.3754C64.0821 4.11239 63.8441 3.87441 63.8441 3.58119C63.8441 3.288 64.0822 3.05 64.3754 3.04994H73.8168Z" fill="#3E7BFA"/>
<path d="M76.1817 0.687454C76.475 0.687454 76.713 0.925454 76.713 1.2187V39.455C76.7128 39.7481 76.4749 39.9853 76.1817 39.9853C75.8886 39.9853 75.6507 39.7481 75.6505 39.455V1.74898H65.7657C65.4726 1.74898 65.2347 1.51179 65.2345 1.2187C65.2345 0.925453 65.4725 0.687454 65.7657 0.687454H76.1817Z" fill="#3E7BFA"/>
</svg>
